<svg width="130" height="15" viewBox="0 0 130 15" fill="none" xmlns="http://www.w3.org/2000/svg">
<g id="Group 2">
<path id="Vector" d="M0 7.54148C0 3.73205 2.92202 0.964844 6.91144 0.964844C10.9008 0.964844 13.8229 3.73205 13.8229 7.54148C13.8229 11.3509 10.9008 14.1181 6.91144 14.1181C2.92206 14.1181 0 11.3509 0 7.54148ZM9.65848 7.54148C9.65848 5.58287 8.43369 4.39692 6.91144 4.39692C5.38918 4.39692 4.16435 5.58287 4.16435 7.54148C4.16435 9.50009 5.38918 10.6861 6.91144 10.6861C8.4337 10.6861 9.65848 9.50008 9.65848 7.54148Z" fill="url(#paint0_linear_9_154)"/>
<path id="Vector_2" d="M27.4003 1.25293V13.8312H24.0058L19.3515 8.11708V13.8312H15.3271V1.25293H18.7217L23.3759 6.96707V1.25293H27.4003Z" fill="url(#paint1_linear_9_154)"/>
<path id="Vector_3" d="M39.578 10.6327V13.8312H29.3945V1.25293H39.3505V4.45142H33.454V5.92489H38.6331V8.97962H33.454V10.6327H39.578Z" fill="url(#paint2_linear_9_154)"/>
<path id="Vector_4" d="M52.5599 11.675H50.9326V13.8312H46.9257V11.675H40.5742V8.97962L45.7709 1.25293H50.0052L45.386 8.38665H47.0482V6.46397H50.9326V8.38665H52.5599V11.675Z" fill="url(#paint3_linear_9_154)"/>
<path id="Vector_5" d="M61.9032 7.20005H65.4902V12.5189C64.0029 13.5611 61.9558 14.1181 60.1535 14.1181C56.1991 14.1181 53.312 11.4048 53.312 7.54148C53.312 3.67815 56.1991 0.964844 60.241 0.964844C62.6556 0.964844 64.5978 1.82733 65.8401 3.39067L63.198 5.78052C62.4282 4.8641 61.5357 4.39692 60.4509 4.39692C58.6313 4.39692 57.4764 5.60083 57.4764 7.54148C57.4764 9.42822 58.6313 10.6861 60.3984 10.6861C60.9059 10.6861 61.3958 10.5962 61.9032 10.3806V7.20005Z" fill="url(#paint4_linear_9_154)"/>
<path id="Vector_6" d="M67.2563 1.25293H71.3857V10.5429H76.9149V13.8312H67.2563V1.25293Z" fill="url(#paint5_linear_9_154)"/>
<path id="Vector_7" d="M104.787 10.3632C104.787 12.5554 102.985 13.8312 99.6083 13.8312H92.7144V1.25293H99.2583C102.635 1.25293 104.21 2.63657 104.21 4.54129C104.21 5.70927 103.633 6.67959 102.513 7.2546C103.948 7.79367 104.787 8.87179 104.787 10.3632ZM96.7737 4.21783V6.08662H98.6984C99.6258 6.08662 100.046 5.76316 100.046 5.15222C100.046 4.54129 99.6258 4.21783 98.6984 4.21783H96.7737ZM100.623 9.87804C100.623 9.23117 100.168 8.88975 99.2583 8.88975H96.7737V10.8664H99.2583C100.168 10.8664 100.623 10.5249 100.623 9.87804Z" fill="url(#paint6_linear_9_154)"/>
<path id="Vector_8" d="M120.342 1.25293H124.471V10.5429H130V13.8312H120.342V1.25293Z" fill="url(#paint7_linear_9_154)"/>
<path id="Vector_9" d="M90.1536 3.2645L89.9392 3.3343L88.7975 3.43877L88.475 3.96765L88.241 3.8913L87.3323 3.04995L87.2005 2.61241L87.0239 2.14583L86.4528 1.61976L85.7791 1.48438L85.7636 1.80105L86.4236 2.46251L86.7466 2.8532L86.3835 3.04808L86.0879 2.9586L85.645 2.76888L85.66 2.40208L85.0789 2.15661L84.8859 3.01903L84.3002 3.15535L84.3581 3.63646L85.1213 3.7873L85.2531 3.01856L85.8831 3.11413L86.1759 3.29027H86.6458L86.9674 3.95172L87.8199 4.83991L87.7574 5.18517L87.07 5.09522L85.8822 5.71124L85.0269 6.76479L84.9156 7.23137H84.6086L84.0366 6.96061L83.481 7.23137L83.6192 7.83334L83.8609 7.54711L84.2861 7.53353L84.2564 8.07413L84.6086 8.18L84.9603 8.58568L85.5346 8.41984L86.1905 8.52618L86.9523 8.73652L87.3328 8.78243L87.9778 9.5343L89.2226 10.2862L88.4175 11.8658L87.5677 12.2715L87.2452 13.1742L86.0154 14.0174L85.8845 14.5037C89.0283 13.726 91.367 10.8258 91.367 7.35832C91.3661 5.84381 90.9191 4.43423 90.1536 3.2645Z" fill="url(#paint8_linear_9_154)"/>
<path id="Vector_10" d="M85.0269 11.204L84.505 10.2104L84.984 9.18538L84.505 9.03829L83.9672 8.48364L82.7757 8.20912L82.3802 7.35934V7.86387H82.206L81.1792 6.43415V5.25973L80.4265 4.00287L79.2314 4.22163H78.4262L78.0212 3.94899L78.538 3.52832L78.0225 3.65059C77.4012 4.74021 77.0391 6.00457 77.0391 7.35888C77.0391 11.4218 80.2463 14.7169 84.203 14.7169C84.5077 14.7169 84.8065 14.6893 85.1021 14.6527L85.0273 13.7612C85.0273 13.7612 85.3562 12.4374 85.3562 12.3924C85.3557 12.347 85.0269 11.204 85.0269 11.204Z" fill="url(#paint9_linear_9_154)"/>
<path id="Vector_11" d="M79.7014 2.37272L80.974 2.1905L81.5607 1.86023L82.2207 2.05558L83.2754 1.99562L83.6366 1.41239L84.1635 1.5014L85.443 1.37819L85.7956 0.979071L86.2928 0.638036L86.9962 0.746717L87.2526 0.706898C86.3261 0.259056 85.2952 0 84.2027 0C81.979 0 79.9906 1.04091 78.6777 2.67535H78.6814L79.7014 2.37272ZM84.5056 0.731727L85.2373 0.318082L85.7071 0.596813L85.027 1.12851L84.3774 1.1955L84.085 1.00062L84.5056 0.731727ZM82.3384 0.792158L82.6614 0.930352L83.0842 0.792158L83.3146 1.20206L82.3384 1.46533L81.869 1.18332C81.8686 1.18332 82.3279 0.879759 82.3384 0.792158Z" fill="url(#paint10_linear_9_154)"/>
<path id="Vector_12" d="M114.323 1.25293H110.263L104.909 13.8312H109.109L109.659 12.3626L111.07 8.5843H111.068L112.258 5.42174L113.448 8.5843H113.445L114.893 12.4607L115.408 13.8312H119.677L114.323 1.25293Z" fill="url(#paint11_linear_9_154)"/>
</g>
<defs>
<linearGradient id="paint0_linear_9_154" x1="1.31264" y1="3.15705" x2="12.803" y2="3.20298" gradientUnits="userSpaceOnUse">
<stop stop-color="#823BE9"/>
<stop offset="1" stop-color="#B213CB"/>
</linearGradient>
<linearGradient id="paint1_linear_9_154" x1="16.4736" y1="3.34931" x2="26.5095" y2="3.38595" gradientUnits="userSpaceOnUse">
<stop stop-color="#823BE9"/>
<stop offset="1" stop-color="#B213CB"/>
</linearGradient>
<linearGradient id="paint2_linear_9_154" x1="30.3616" y1="3.34931" x2="38.8267" y2="3.37538" gradientUnits="userSpaceOnUse">
<stop stop-color="#823BE9"/>
<stop offset="1" stop-color="#B213CB"/>
</linearGradient>
<linearGradient id="paint3_linear_9_154" x1="41.7124" y1="3.34931" x2="51.6756" y2="3.38542" gradientUnits="userSpaceOnUse">
<stop stop-color="#823BE9"/>
<stop offset="1" stop-color="#B213CB"/>
</linearGradient>
<linearGradient id="paint4_linear_9_154" x1="54.5017" y1="3.15705" x2="64.9158" y2="3.19478" gradientUnits="userSpaceOnUse">
<stop stop-color="#823BE9"/>
<stop offset="1" stop-color="#B213CB"/>
</linearGradient>
<linearGradient id="paint5_linear_9_154" x1="68.1735" y1="3.34931" x2="76.2023" y2="3.37276" gradientUnits="userSpaceOnUse">
<stop stop-color="#823BE9"/>
<stop offset="1" stop-color="#B213CB"/>
</linearGradient>
<linearGradient id="paint6_linear_9_154" x1="93.8608" y1="3.34931" x2="103.897" y2="3.38595" gradientUnits="userSpaceOnUse">
<stop stop-color="#823BE9"/>
<stop offset="1" stop-color="#B213CB"/>
</linearGradient>
<linearGradient id="paint7_linear_9_154" x1="121.259" y1="3.34931" x2="129.288" y2="3.37276" gradientUnits="userSpaceOnUse">
<stop stop-color="#823BE9"/>
<stop offset="1" stop-color="#B213CB"/>
</linearGradient>
<linearGradient id="paint8_linear_9_154" x1="84.2298" y1="3.65426" x2="90.7852" y2="3.66936" gradientUnits="userSpaceOnUse">
<stop stop-color="#823BE9"/>
<stop offset="1" stop-color="#B213CB"/>
</linearGradient>
<linearGradient id="paint9_linear_9_154" x1="77.8289" y1="5.39308" x2="84.7426" y2="5.41263" gradientUnits="userSpaceOnUse">
<stop stop-color="#823BE9"/>
<stop offset="1" stop-color="#B213CB"/>
</linearGradient>
<linearGradient id="paint10_linear_9_154" x1="79.492" y1="0.445891" x2="86.619" y2="0.532774" gradientUnits="userSpaceOnUse">
<stop stop-color="#823BE9"/>
<stop offset="1" stop-color="#B213CB"/>
</linearGradient>
<linearGradient id="paint11_linear_9_154" x1="106.312" y1="3.34931" x2="118.587" y2="3.40413" gradientUnits="userSpaceOnUse">
<stop stop-color="#823BE9"/>
<stop offset="1" stop-color="#B213CB"/>
</linearGradient>
</defs>
</svg>
