<svg width="177" height="20" viewBox="0 0 177 20" fill="none" xmlns="http://www.w3.org/2000/svg">
<g id="Group 1">
<path id="Vector" d="M0 10.249C0 5.0721 3.97097 1.31152 9.39251 1.31152C14.814 1.31152 18.785 5.0721 18.785 10.249C18.785 15.426 14.814 19.1866 9.39251 19.1866C3.97103 19.1866 0 15.426 0 10.249ZM13.1257 10.249C13.1257 7.58733 11.4612 5.97565 9.39251 5.97565C7.32379 5.97565 5.65927 7.58733 5.65927 10.249C5.65927 12.9108 7.32379 14.5225 9.39251 14.5225C11.4612 14.5225 13.1257 12.9108 13.1257 10.249Z" fill="white"/>
<path id="Vector_2" d="M37.2363 1.70215V18.7958H32.6233L26.2982 11.0304V18.7958H20.8291V1.70215H25.4422L31.7672 9.46756V1.70215H37.2363Z" fill="white"/>
<path id="Vector_3" d="M53.7854 14.4491V18.7958H39.9463V1.70215H53.4762V6.04884H45.463V8.05125H52.5013V12.2026H45.463V14.4491H53.7854Z" fill="white"/>
<path id="Vector_4" d="M71.4279 15.8655H69.2166V18.7958H63.7712V15.8655H55.1396V12.2026L62.2019 1.70215H67.9562L61.6788 11.3967H63.9377V8.78385H69.2166V11.3967H71.4279V15.8655Z" fill="white"/>
<path id="Vector_5" d="M84.125 9.78506H88.9996V17.0132C86.9784 18.4296 84.1964 19.1866 81.7472 19.1866C76.3732 19.1866 72.4497 15.4992 72.4497 10.249C72.4497 4.99886 76.3732 1.31152 81.866 1.31152C85.1474 1.31152 87.7869 2.48363 89.4752 4.60817L85.8846 7.85594C84.8384 6.61053 83.6256 5.97565 82.1513 5.97565C79.6785 5.97565 78.1091 7.61174 78.1091 10.249C78.1091 12.8131 79.6785 14.5225 82.08 14.5225C82.7697 14.5225 83.4354 14.4004 84.125 14.1073V9.78506Z" fill="white"/>
<path id="Vector_6" d="M91.4004 1.70215H97.0121V14.3271H104.526V18.7958H91.4004V1.70215Z" fill="white"/>
<path id="Vector_7" d="M142.404 14.0829C142.404 17.062 139.955 18.7958 135.366 18.7958H125.997V1.70215H134.89C139.479 1.70215 141.619 3.58249 141.619 6.17096C141.619 7.75822 140.835 9.07687 139.313 9.8583C141.263 10.5909 142.404 12.056 142.404 14.0829ZM131.514 5.73139V8.27104H134.129C135.39 8.27104 135.96 7.83147 135.96 7.00121C135.96 6.17096 135.39 5.73139 134.129 5.73139H131.514ZM136.745 13.4235C136.745 12.5444 136.127 12.0804 134.89 12.0804H131.514V14.7666H134.89C136.127 14.7666 136.745 14.3026 136.745 13.4235Z" fill="white"/>
<path id="Vector_8" d="M163.542 1.70215H169.154V14.3271H176.668V18.7958H163.542V1.70215Z" fill="white"/>
<path id="Vector_9" d="M122.517 4.43674L122.226 4.53159L120.674 4.67356L120.236 5.39231L119.918 5.28854L118.683 4.14517L118.504 3.55056L118.264 2.91649L117.488 2.20156L116.572 2.01758L116.551 2.44793L117.448 3.34684L117.887 3.87778L117.394 4.14262L116.992 4.02102L116.39 3.76319L116.411 3.26472L115.621 2.93113L115.359 4.10315L114.563 4.2884L114.641 4.94221L115.678 5.14721L115.858 4.10251L116.714 4.23238L117.112 4.47175H117.75L118.187 5.37066L119.346 6.57769L119.261 7.04688L118.327 6.92465L116.712 7.76181L115.55 9.19357L115.399 9.82764H114.982L114.204 9.45968L113.449 9.82764L113.637 10.6457L113.966 10.2567L114.543 10.2383L114.503 10.9729L114.982 11.1168L115.46 11.6681L116.24 11.4427L117.131 11.5873L118.167 11.8731L118.684 11.9355L119.56 12.9573L121.252 13.979L120.158 16.1257L119.003 16.677L118.565 17.9038L116.893 19.0497L116.716 19.7105C120.988 18.6538 124.166 14.7124 124.166 10.0002C124.165 7.94197 123.557 6.02638 122.517 4.43674Z" fill="white"/>
<path id="Vector_10" d="M115.55 15.226L114.84 13.8757L115.491 12.4828L114.84 12.2829L114.11 11.5291L112.49 11.156L111.953 10.0012V10.6869H111.716L110.321 8.74388V7.14787L109.298 5.43982L107.674 5.73712H106.579L106.029 5.36661L106.731 4.79492L106.031 4.96108C105.187 6.44186 104.694 8.1601 104.694 10.0006C104.694 15.522 109.053 20 114.43 20C114.844 20 115.25 19.9624 115.652 19.9128L115.55 18.7013C115.55 18.7013 115.997 16.9022 115.997 16.8411C115.997 16.7793 115.55 15.226 115.55 15.226Z" fill="white"/>
<path id="Vector_11" d="M108.312 3.22449L110.042 2.97684L110.839 2.52802L111.736 2.79349L113.169 2.71201L113.66 1.91941L114.376 2.04037L116.115 1.87294L116.594 1.33054L117.27 0.867078L118.226 1.01477L118.574 0.960661C117.315 0.352052 115.914 0 114.43 0C111.408 0 108.705 1.41457 106.921 3.63574H106.926L108.312 3.22449ZM114.841 0.994403L115.836 0.432267L116.474 0.811057L115.55 1.53362L114.667 1.62466L114.27 1.35982L114.841 0.994403ZM111.896 1.07653L112.335 1.26433L112.91 1.07653L113.223 1.63357L111.896 1.99135L111.258 1.6081C111.258 1.6081 111.882 1.19558 111.896 1.07653Z" fill="white"/>
<path id="Vector_12" d="M155.363 1.70215H149.846L142.57 18.7958H148.277L149.025 16.8L150.942 11.6653H150.94L152.557 7.36749L154.174 11.6653H154.17L156.138 16.9333L156.837 18.7958H162.639L155.363 1.70215Z" fill="white"/>
</g>
</svg>
